<mxfile host="Electron" agent="Mozilla/5.0 (Windows NT 10.0; Win64; x64) AppleWebKit/537.36 (KHTML, like Gecko) draw.io/24.7.8 Chrome/128.0.6613.36 Electron/32.0.1 Safari/537.36" version="24.7.8">
  <diagram name="Page-1" id="f1b7ffb7-ca1e-a977-7cf5-a751b3c06c05">
    <mxGraphModel dx="2120" dy="1567" grid="1" gridSize="10" guides="1" tooltips="1" connect="1" arrows="1" fold="1" page="1" pageScale="1" pageWidth="826" pageHeight="1169" background="none" math="0" shadow="0">
      <root>
        <mxCell id="0" />
        <mxCell id="1" parent="0" />
        <mxCell id="13" value="" style="verticalLabelPosition=bottom;verticalAlign=top;strokeWidth=1;shape=mxgraph.mockup.graphics.iconGrid;gridSize=1,1;" parent="1" vertex="1">
          <mxGeometry x="70" y="160" width="472.5" height="320" as="geometry" />
        </mxCell>
        <mxCell id="2" value="Gym" style="text;spacingTop=-5;fontSize=18;fontStyle=0" parent="1" vertex="1">
          <mxGeometry x="70" y="30" width="230" height="20" as="geometry" />
        </mxCell>
        <mxCell id="3" value="" style="line;strokeWidth=1" parent="1" vertex="1">
          <mxGeometry x="20" y="60" width="780" height="10" as="geometry" />
        </mxCell>
        <mxCell id="5" value="Home" style="text;spacingTop=-5;" parent="1" vertex="1">
          <mxGeometry x="20" y="70.00000000000009" width="30" height="20" as="geometry" />
        </mxCell>
        <mxCell id="6" value="Übungen" style="text;spacingTop=-5;" parent="1" vertex="1">
          <mxGeometry x="59.999999999999936" y="70.00000000000016" width="30" height="20" as="geometry" />
        </mxCell>
        <mxCell id="20" value="" style="verticalLabelPosition=bottom;verticalAlign=top;strokeWidth=1;shape=mxgraph.mockup.graphics.iconGrid;strokeColor=#CCCCCC;gridSize=1,1;" parent="1" vertex="1">
          <mxGeometry x="20" y="15" width="40" height="40" as="geometry" />
        </mxCell>
        <mxCell id="21" value="Blog &#xa;Logo" style="text;spacingTop=-5;align=center" parent="1" vertex="1">
          <mxGeometry x="20" y="20" width="40" height="40" as="geometry" />
        </mxCell>
        <mxCell id="22" value="Tips/tricks" style="text;spacingTop=-5;" parent="1" vertex="1">
          <mxGeometry x="119.99999999999997" y="70.00000000000026" width="30" height="20" as="geometry" />
        </mxCell>
        <mxCell id="23" value="Gym&#39;s in der Schweiz" style="text;spacingTop=-5;" parent="1" vertex="1">
          <mxGeometry x="190" y="70.00000000000003" width="30" height="20" as="geometry" />
        </mxCell>
        <mxCell id="24" value="Hilfsmittel" style="text;spacingTop=-5;" parent="1" vertex="1">
          <mxGeometry x="330" y="70.00000000000013" width="30" height="20" as="geometry" />
        </mxCell>
        <mxCell id="25" value="" style="verticalLabelPosition=bottom;verticalAlign=top;strokeWidth=1;shape=mxgraph.mockup.graphics.iconGrid;gridSize=1,1;" parent="1" vertex="1">
          <mxGeometry x="71.25" y="490" width="470" height="275" as="geometry" />
        </mxCell>
        <mxCell id="27" value="" style="verticalLabelPosition=bottom;verticalAlign=top;strokeWidth=1;shape=mxgraph.mockup.graphics.iconGrid;gridSize=1,1;" parent="1" vertex="1">
          <mxGeometry x="70" y="779" width="470" height="380" as="geometry" />
        </mxCell>
        <mxCell id="50" value="" style="verticalLabelPosition=bottom;verticalAlign=top;strokeWidth=1;shape=mxgraph.mockup.graphics.iconGrid;gridSize=1,1;" parent="1" vertex="1">
          <mxGeometry x="70" y="1170" width="470" height="400" as="geometry" />
        </mxCell>
        <mxCell id="3brwmGkzX-Uwol7bjx2u-51" value="Gym" style="text;spacingTop=-5;fontSize=18;fontStyle=0" vertex="1" parent="1">
          <mxGeometry x="970" y="214" width="230" height="20" as="geometry" />
        </mxCell>
        <mxCell id="3brwmGkzX-Uwol7bjx2u-52" value="" style="line;strokeWidth=1" vertex="1" parent="1">
          <mxGeometry x="920" y="244" width="780" height="10" as="geometry" />
        </mxCell>
        <mxCell id="3brwmGkzX-Uwol7bjx2u-53" value="Home" style="text;spacingTop=-5;" vertex="1" parent="1">
          <mxGeometry x="920" y="259.0000000000001" width="30" height="20" as="geometry" />
        </mxCell>
        <mxCell id="3brwmGkzX-Uwol7bjx2u-55" value="" style="verticalLabelPosition=bottom;verticalAlign=top;strokeWidth=1;shape=mxgraph.mockup.graphics.iconGrid;strokeColor=#CCCCCC;gridSize=1,1;" vertex="1" parent="1">
          <mxGeometry x="920" y="199" width="40" height="40" as="geometry" />
        </mxCell>
        <mxCell id="3brwmGkzX-Uwol7bjx2u-56" value="Blog &#xa;Logo" style="text;spacingTop=-5;align=center" vertex="1" parent="1">
          <mxGeometry x="920" y="204" width="40" height="40" as="geometry" />
        </mxCell>
        <mxCell id="3brwmGkzX-Uwol7bjx2u-57" value="Tips/tricks" style="text;spacingTop=-5;" vertex="1" parent="1">
          <mxGeometry x="1030" y="259.0000000000002" width="30" height="20" as="geometry" />
        </mxCell>
        <mxCell id="3brwmGkzX-Uwol7bjx2u-58" value="Gym&#39;s in der Schweiz" style="text;spacingTop=-5;" vertex="1" parent="1">
          <mxGeometry x="1090" y="259" width="30" height="20" as="geometry" />
        </mxCell>
        <mxCell id="3brwmGkzX-Uwol7bjx2u-59" value="Hilfsmittel" style="text;spacingTop=-5;" vertex="1" parent="1">
          <mxGeometry x="1224" y="259.0000000000001" width="30" height="20" as="geometry" />
        </mxCell>
        <mxCell id="3brwmGkzX-Uwol7bjx2u-63" value="" style="rounded=0;whiteSpace=wrap;html=1;fillColor=#0050ef;fontColor=#ffffff;strokeColor=#001DBC;" vertex="1" parent="1">
          <mxGeometry x="960" y="254" width="60" height="30" as="geometry" />
        </mxCell>
        <mxCell id="3brwmGkzX-Uwol7bjx2u-64" value="&lt;span style=&quot;text-align: left; text-wrap: nowrap;&quot;&gt;Übungen&lt;/span&gt;" style="text;html=1;align=center;verticalAlign=middle;whiteSpace=wrap;rounded=0;" vertex="1" parent="1">
          <mxGeometry x="960" y="254" width="60" height="30" as="geometry" />
        </mxCell>
        <mxCell id="3brwmGkzX-Uwol7bjx2u-70" value="" style="rounded=1;whiteSpace=wrap;html=1;" vertex="1" parent="1">
          <mxGeometry x="950" y="284" width="130" height="166" as="geometry" />
        </mxCell>
        <mxCell id="3brwmGkzX-Uwol7bjx2u-66" value="Legs" style="text;html=1;align=center;verticalAlign=middle;whiteSpace=wrap;rounded=0;" vertex="1" parent="1">
          <mxGeometry x="960" y="300" width="60" height="30" as="geometry" />
        </mxCell>
        <mxCell id="3brwmGkzX-Uwol7bjx2u-67" value="Chest" style="text;html=1;align=center;verticalAlign=middle;whiteSpace=wrap;rounded=0;" vertex="1" parent="1">
          <mxGeometry x="960" y="330" width="60" height="30" as="geometry" />
        </mxCell>
        <mxCell id="3brwmGkzX-Uwol7bjx2u-68" value="Back" style="text;html=1;align=center;verticalAlign=middle;whiteSpace=wrap;rounded=0;" vertex="1" parent="1">
          <mxGeometry x="960" y="360" width="60" height="30" as="geometry" />
        </mxCell>
        <mxCell id="3brwmGkzX-Uwol7bjx2u-69" value="Arms" style="text;html=1;align=center;verticalAlign=middle;whiteSpace=wrap;rounded=0;" vertex="1" parent="1">
          <mxGeometry x="960" y="390" width="60" height="30" as="geometry" />
        </mxCell>
        <mxCell id="3brwmGkzX-Uwol7bjx2u-71" value="" style="verticalLabelPosition=bottom;verticalAlign=top;strokeWidth=1;shape=mxgraph.mockup.graphics.iconGrid;gridSize=1,1;" vertex="1" parent="1">
          <mxGeometry x="1741.25" y="670" width="472.5" height="320" as="geometry" />
        </mxCell>
        <mxCell id="3brwmGkzX-Uwol7bjx2u-72" value="Gym" style="text;spacingTop=-5;fontSize=18;fontStyle=0" vertex="1" parent="1">
          <mxGeometry x="1750" y="465" width="230" height="20" as="geometry" />
        </mxCell>
        <mxCell id="3brwmGkzX-Uwol7bjx2u-73" value="Home" style="text;spacingTop=-5;" vertex="1" parent="1">
          <mxGeometry x="1700" y="505.0000000000001" width="30" height="20" as="geometry" />
        </mxCell>
        <mxCell id="3brwmGkzX-Uwol7bjx2u-74" value="Übungen" style="text;spacingTop=-5;" vertex="1" parent="1">
          <mxGeometry x="1740" y="505.00000000000017" width="30" height="20" as="geometry" />
        </mxCell>
        <mxCell id="3brwmGkzX-Uwol7bjx2u-75" value="" style="verticalLabelPosition=bottom;verticalAlign=top;strokeWidth=1;shape=mxgraph.mockup.graphics.iconGrid;strokeColor=#CCCCCC;gridSize=1,1;" vertex="1" parent="1">
          <mxGeometry x="1700" y="450" width="40" height="40" as="geometry" />
        </mxCell>
        <mxCell id="3brwmGkzX-Uwol7bjx2u-76" value="Blog &#xa;Logo" style="text;spacingTop=-5;align=center" vertex="1" parent="1">
          <mxGeometry x="1700" y="455" width="40" height="40" as="geometry" />
        </mxCell>
        <mxCell id="3brwmGkzX-Uwol7bjx2u-77" value="Tips/tricks" style="text;spacingTop=-5;" vertex="1" parent="1">
          <mxGeometry x="1800" y="505.0000000000002" width="30" height="20" as="geometry" />
        </mxCell>
        <mxCell id="3brwmGkzX-Uwol7bjx2u-78" value="Gym&#39;s in der Schweiz" style="text;spacingTop=-5;" vertex="1" parent="1">
          <mxGeometry x="1870" y="505" width="30" height="20" as="geometry" />
        </mxCell>
        <mxCell id="3brwmGkzX-Uwol7bjx2u-79" value="Hilfsmittel" style="text;spacingTop=-5;" vertex="1" parent="1">
          <mxGeometry x="2010" y="505.0000000000001" width="30" height="20" as="geometry" />
        </mxCell>
        <mxCell id="3brwmGkzX-Uwol7bjx2u-83" value="" style="line;strokeWidth=1" vertex="1" parent="1">
          <mxGeometry x="1660" y="495" width="780" height="10" as="geometry" />
        </mxCell>
        <mxCell id="3brwmGkzX-Uwol7bjx2u-84" value="Titel(legs)" style="text;html=1;align=center;verticalAlign=middle;whiteSpace=wrap;rounded=0;fontSize=24;" vertex="1" parent="1">
          <mxGeometry x="1930" y="600" width="60" height="30" as="geometry" />
        </mxCell>
        <mxCell id="3brwmGkzX-Uwol7bjx2u-85" value="" style="endArrow=none;html=1;rounded=0;" edge="1" parent="1">
          <mxGeometry width="50" height="50" relative="1" as="geometry">
            <mxPoint x="1580" y="790" as="sourcePoint" />
            <mxPoint x="1740" y="670" as="targetPoint" />
          </mxGeometry>
        </mxCell>
        <mxCell id="3brwmGkzX-Uwol7bjx2u-86" value="" style="endArrow=none;html=1;rounded=0;" edge="1" parent="1">
          <mxGeometry width="50" height="50" relative="1" as="geometry">
            <mxPoint x="1580" y="820" as="sourcePoint" />
            <mxPoint x="1740" y="990" as="targetPoint" />
          </mxGeometry>
        </mxCell>
        <mxCell id="3brwmGkzX-Uwol7bjx2u-87" value="Übung" style="text;html=1;align=center;verticalAlign=middle;whiteSpace=wrap;rounded=0;fontSize=14;" vertex="1" parent="1">
          <mxGeometry x="1530" y="790" width="60" height="30" as="geometry" />
        </mxCell>
        <mxCell id="3brwmGkzX-Uwol7bjx2u-88" value="&lt;h1 style=&quot;margin-top: 0px;&quot;&gt;Heading&lt;/h1&gt;&lt;p&gt;Lorem ipsum dolor sit amet, consectetur adipisicing elit, sed do eiusmod tempor incididunt ut labore et dolore magna aliqua.&lt;/p&gt;" style="text;html=1;whiteSpace=wrap;overflow=hidden;rounded=0;" vertex="1" parent="1">
          <mxGeometry x="1743.75" y="1000" width="450" height="120" as="geometry" />
        </mxCell>
        <mxCell id="3brwmGkzX-Uwol7bjx2u-89" value="" style="verticalLabelPosition=bottom;verticalAlign=top;strokeWidth=1;shape=mxgraph.mockup.graphics.iconGrid;gridSize=1,1;" vertex="1" parent="1">
          <mxGeometry x="1741.25" y="1100" width="472.5" height="320" as="geometry" />
        </mxCell>
        <mxCell id="3brwmGkzX-Uwol7bjx2u-91" value="" style="endArrow=none;html=1;rounded=0;" edge="1" parent="1">
          <mxGeometry width="50" height="50" relative="1" as="geometry">
            <mxPoint x="1580" y="1220" as="sourcePoint" />
            <mxPoint x="1740" y="1100" as="targetPoint" />
          </mxGeometry>
        </mxCell>
        <mxCell id="3brwmGkzX-Uwol7bjx2u-92" value="" style="endArrow=none;html=1;rounded=0;" edge="1" parent="1">
          <mxGeometry width="50" height="50" relative="1" as="geometry">
            <mxPoint x="1580" y="1250" as="sourcePoint" />
            <mxPoint x="1740" y="1420" as="targetPoint" />
          </mxGeometry>
        </mxCell>
        <mxCell id="3brwmGkzX-Uwol7bjx2u-93" value="Übung" style="text;html=1;align=center;verticalAlign=middle;whiteSpace=wrap;rounded=0;fontSize=14;" vertex="1" parent="1">
          <mxGeometry x="1530" y="1220" width="60" height="30" as="geometry" />
        </mxCell>
        <mxCell id="3brwmGkzX-Uwol7bjx2u-94" value="&lt;h1 style=&quot;margin-top: 0px;&quot;&gt;Heading&lt;/h1&gt;&lt;p&gt;Lorem ipsum dolor sit amet, consectetur adipisicing elit, sed do eiusmod tempor incididunt ut labore et dolore magna aliqua.&lt;/p&gt;" style="text;html=1;whiteSpace=wrap;overflow=hidden;rounded=0;" vertex="1" parent="1">
          <mxGeometry x="1743.75" y="1430" width="450" height="120" as="geometry" />
        </mxCell>
      </root>
    </mxGraphModel>
  </diagram>
</mxfile>
